<?xml version="1.0" standalone="no"?>
<!DOCTYPE svg PUBLIC "-//W3C//DTD SVG 20010904//EN"
 "http://www.w3.org/TR/2001/REC-SVG-20010904/DTD/svg10.dtd">
<svg version="1.0" xmlns="http://www.w3.org/2000/svg"
 width="738.000000pt" height="476.000000pt" viewBox="0 0 738.000000 476.000000"
 preserveAspectRatio="xMidYMid meet">

<g transform="translate(0.000000,476.000000) scale(0.100000,-0.100000)"
fill="#000000" stroke="none">
<path d="M4350 4419 c-96 -3 -199 -11 -227 -17 -116 -26 -160 -35 -208 -42
-27 -4 -75 -15 -105 -24 -30 -9 -83 -23 -116 -31 -56 -13 -107 -31 -156 -56
-10 -5 -24 -9 -32 -9 -8 0 -41 -13 -73 -29 -32 -16 -94 -45 -138 -66 -44 -20
-87 -41 -95 -46 -8 -5 -31 -17 -50 -27 -19 -9 -49 -27 -67 -39 -17 -13 -36
-23 -42 -23 -6 0 -11 -5 -11 -10 0 -6 -10 -15 -22 -20 -38 -16 -62 -34 -87
-62 -13 -16 -28 -28 -33 -28 -10 0 -131 -100 -136 -112 -2 -5 -10 -8 -18 -8
-8 0 -14 -4 -14 -8 0 -11 -110 -122 -121 -122 -4 0 -11 -10 -15 -22 -4 -12
-17 -31 -30 -41 -13 -10 -24 -22 -24 -27 0 -5 -12 -22 -27 -38 -16 -16 -44
-53 -63 -81 -19 -29 -43 -61 -52 -73 -9 -11 -25 -41 -35 -67 -9 -25 -20 -48
-23 -51 -12 -10 -76 -146 -89 -190 -7 -25 -21 -70 -31 -100 -56 -169 -65 -234
-65 -470 0 -214 1 -231 29 -345 16 -66 32 -124 36 -130 4 -5 15 -37 23 -70 22
-85 193 -415 215 -415 12 0 -6 192 -22 250 -9 30 -16 71 -16 91 0 19 -11 67
-24 105 -29 86 -38 181 -38 395 1 188 13 300 42 380 11 29 20 60 20 68 0 8 13
43 30 78 17 34 30 70 30 79 0 18 39 87 52 92 4 2 8 12 8 21 0 10 11 31 25 47
14 16 25 36 25 45 0 9 14 30 30 47 17 18 30 35 30 40 0 4 14 22 30 40 17 18
30 37 30 41 0 5 37 47 83 94 78 81 125 124 212 192 21 17 51 42 66 58 16 15
32 27 37 27 4 0 21 14 37 30 16 17 35 30 42 30 7 0 13 3 13 8 0 7 16 17 79 47
19 9 40 23 48 31 8 8 21 14 29 14 8 0 14 5 14 10 0 6 10 10 22 10 12 0 31 8
42 18 12 10 37 25 56 32 19 7 63 26 98 41 34 16 68 29 75 29 15 0 91 26 115
40 9 5 87 23 172 40 85 17 187 38 225 46 135 28 313 38 482 25 263 -18 517
-50 544 -67 6 -3 43 -13 82 -20 40 -8 81 -19 92 -24 52 -24 99 -40 116 -40 11
0 45 -13 76 -30 31 -16 62 -30 69 -30 7 0 29 -9 47 -19 59 -33 71 -39 105 -51
17 -7 32 -16 32 -20 0 -4 19 -15 43 -26 23 -10 53 -28 66 -41 13 -13 30 -23
38 -23 14 0 26 -8 64 -42 10 -10 22 -18 27 -18 4 0 22 -12 39 -27 18 -16 49
-41 69 -58 74 -61 197 -182 252 -250 31 -38 63 -77 71 -86 13 -16 16 -15 37 8
13 14 24 34 24 44 0 11 4 19 10 19 14 0 60 75 67 110 6 31 -13 60 -93 146 -16
17 -39 41 -50 55 -34 39 -142 137 -171 156 -16 10 -36 28 -46 40 -10 13 -25
23 -33 23 -8 0 -17 7 -20 15 -3 8 -29 29 -57 47 -29 18 -58 38 -65 45 -7 7
-20 13 -28 13 -8 0 -25 10 -37 21 -12 12 -41 30 -64 41 -24 10 -43 22 -43 26
0 8 -49 32 -67 32 -6 0 -29 11 -49 25 -20 14 -47 25 -60 25 -12 0 -25 4 -28 9
-13 21 -176 82 -296 112 -41 10 -84 23 -95 28 -23 11 -59 19 -130 30 -27 4
-68 13 -90 19 -143 39 -392 53 -745 41z"/>
<path d="M1330 4301 c0 -6 7 -14 15 -17 8 -3 17 -14 20 -25 4 -10 13 -19 21
-19 8 0 17 -7 20 -15 4 -8 14 -15 23 -15 9 0 36 -11 61 -24 25 -14 61 -32 80
-41 19 -9 47 -23 62 -31 14 -8 31 -14 38 -14 6 0 18 -6 26 -14 8 -8 45 -18 83
-22 70 -6 171 -51 171 -75 0 -6 9 -8 21 -4 12 4 19 3 16 -1 -6 -11 38 -16 71
-9 19 5 22 12 22 48 0 72 -53 107 -163 107 -43 0 -81 8 -122 25 -33 14 -70 25
-82 25 -12 0 -28 7 -37 15 -8 8 -22 15 -30 15 -9 0 -16 4 -16 9 0 5 -25 17
-55 26 -30 10 -55 21 -55 26 0 11 -57 27 -127 35 -45 5 -63 3 -63 -5z"/>
<path d="M446 4135 c-20 -30 -20 -132 -2 -255 l13 -85 2 177 1 177 78 4 77 3
-76 2 c-72 2 -78 0 -93 -23z"/>
<path d="M1225 4130 c-101 -14 -212 -49 -312 -99 -23 -12 -50 -21 -60 -21 -10
0 -27 -7 -37 -15 -11 -8 -30 -15 -43 -15 -17 0 -29 -12 -48 -51 -28 -54 -27
-78 6 -169 6 -19 14 -39 15 -45 5 -14 26 -46 42 -63 6 -7 12 -21 12 -30 0 -16
18 -37 48 -56 7 -4 23 -1 36 7 19 13 24 28 30 87 6 56 16 86 47 143 66 119 78
137 107 162 36 33 154 89 220 106 47 12 84 41 69 55 -9 10 -74 12 -132 4z"/>
<path d="M940 4120 c-9 -6 -10 -10 -3 -10 6 0 15 5 18 10 8 12 4 12 -15 0z"/>
<path d="M896 4095 c-16 -12 -17 -15 -4 -15 9 0 18 7 22 15 7 18 6 18 -18 0z"/>
<path d="M775 4050 c-3 -6 1 -7 9 -4 18 7 21 14 7 14 -6 0 -13 -4 -16 -10z"/>
<path d="M1245 4020 c-3 -5 -15 -10 -26 -10 -17 0 -59 -32 -59 -46 0 -3 -7
-12 -15 -20 -8 -9 -15 -21 -15 -27 1 -7 9 -2 19 11 11 12 24 22 30 22 6 0 11
4 11 9 0 5 18 18 40 30 57 30 146 27 321 -9 79 -16 167 -30 196 -30 28 0 55
-4 58 -10 3 -5 -3 -10 -15 -10 -28 0 -100 -23 -100 -32 0 -5 -8 -8 -18 -8 -11
0 -28 -8 -39 -17 -12 -10 -42 -33 -68 -51 -35 -25 -45 -36 -36 -45 6 -6 11
-32 11 -57 0 -36 7 -55 31 -88 35 -48 59 -55 59 -17 0 14 3 25 8 25 4 0 19
-11 34 -25 15 -14 37 -25 50 -25 23 -1 22 -1 -4 -21 -16 -11 -28 -24 -28 -29
0 -27 209 -18 218 9 2 6 9 11 16 11 18 0 70 51 102 101 16 24 33 47 37 50 5 3
11 24 14 47 7 49 -17 93 -74 138 -49 39 -54 41 -203 70 -69 13 -145 29 -170
35 -25 6 -64 15 -88 20 -57 12 -289 12 -297 -1z m560 -130 c3 -5 2 -10 -3 -10
-5 0 -24 -3 -41 -6 -19 -4 -31 -2 -31 4 0 9 19 16 57 21 6 0 15 -3 18 -9z
m185 -26 c0 -20 -7 -17 -20 6 -9 16 -8 18 5 14 8 -4 15 -12 15 -20z m-73 -9
c-5 -14 -29 -13 -34 2 -3 7 4 11 16 10 12 -1 20 -6 18 -12z m-264 -44 c-27
-27 -43 -31 -43 -11 0 17 54 60 63 51 6 -6 -1 -20 -20 -40z m301 -37 c3 -8 2
-12 -4 -9 -6 3 -10 10 -10 16 0 14 7 11 14 -7z m26 -35 c0 -17 -4 -28 -10 -24
-5 3 -10 1 -10 -4 0 -6 -4 -11 -9 -11 -4 0 -6 11 -3 25 2 14 8 22 13 19 5 -3
9 2 9 10 0 9 2 16 5 16 3 0 5 -14 5 -31z m60 24 c0 -5 -5 -15 -10 -23 -8 -12
-10 -11 -10 8 0 12 5 22 10 22 6 0 10 -3 10 -7z m-296 -9 c18 -7 22 -39 5 -49
-19 -12 -59 4 -59 24 0 25 24 36 54 25z m-114 -60 c0 -41 -2 -45 -22 -42 -19
2 -24 10 -26 46 -3 39 -1 42 22 42 24 0 26 -3 26 -46z m260 10 c0 -16 -13 -39
-34 -60 -29 -29 -41 -34 -79 -34 -29 0 -53 7 -68 19 l-24 19 45 -5 c39 -4 52
0 93 28 27 18 51 38 54 46 8 20 13 16 13 -13z m-135 -43 c-5 -9 -65 -1 -65 8
0 4 16 5 35 3 19 -2 33 -7 30 -11z m200 -11 c8 -13 -43 -60 -66 -60 -26 0 -24
9 8 42 28 29 47 35 58 18z m-102 -81 c6 -23 -24 -39 -74 -39 -24 0 -29 4 -29
24 0 19 6 26 28 29 59 9 70 7 75 -14z"/>
<path d="M617 3973 c8 -63 13 -67 13 -10 0 35 4 47 18 50 10 3 7 5 -10 6 -27
1 -28 0 -21 -46z"/>
<path d="M1666 3932 c-3 -5 8 -6 25 -4 16 2 29 6 29 8 0 8 -49 4 -54 -4z"/>
<path d="M1130 3860 c0 -10 7 -33 15 -51 l14 -34 1 28 c0 23 4 28 21 25 17 -2
25 -14 34 -51 7 -27 24 -61 39 -75 30 -31 36 -12 6 20 -13 14 -20 36 -20 60
l0 38 45 0 c25 0 63 -6 85 -12 37 -12 40 -15 40 -51 0 -43 18 -83 50 -112 l23
-20 -22 42 c-11 23 -21 60 -21 83 0 37 2 40 28 40 l27 1 -30 13 c-16 7 -53 16
-81 20 -28 3 -77 13 -110 22 -118 31 -144 33 -144 14z"/>
<path d="M461 3755 c0 -16 4 -37 9 -45 8 -12 10 -11 9 5 -1 11 -5 31 -9 45 -8
24 -8 24 -9 -5z"/>
<path d="M1160 3747 c0 -77 89 -158 173 -157 l32 1 -25 14 -25 14 23 1 c36 0
18 15 -43 34 -30 10 -55 21 -55 25 0 4 -11 14 -24 21 -14 7 -32 27 -40 44
l-16 31 0 -28z"/>
<path d="M5434 3704 c-9 -36 2 -142 16 -159 14 -17 92 -20 121 -5 20 11 27 50
9 50 -5 0 -10 7 -10 15 0 8 -4 15 -10 15 -5 0 -10 7 -10 15 0 9 -7 18 -15 21
-8 4 -15 12 -15 19 0 13 -30 36 -62 48 -13 5 -19 0 -24 -19z"/>
<path d="M5275 3659 c-22 -28 -45 -56 -50 -62 -6 -7 -16 -24 -22 -39 l-13 -28
71 0 c96 0 109 9 109 69 0 29 -6 53 -14 60 -8 7 -12 21 -9 31 10 38 -31 20
-72 -31z"/>
<path d="M5612 3688 c-16 -16 -15 -28 3 -28 8 0 20 -10 26 -22 6 -12 21 -31
31 -42 11 -12 23 -30 28 -41 6 -16 18 -20 64 -22 41 -1 56 2 56 11 0 23 -40
65 -88 93 -26 15 -55 35 -65 45 -21 21 -38 23 -55 6z"/>
<path d="M5150 3680 c0 -5 -8 -10 -17 -10 -10 0 -36 -16 -58 -36 -22 -19 -53
-43 -68 -52 -46 -27 -31 -47 39 -50 60 -3 61 -2 74 28 7 16 16 30 21 30 5 0 9
9 9 20 0 11 8 24 18 27 38 14 44 53 7 53 -14 0 -25 -4 -25 -10z"/>
<path d="M1410 3627 c0 -7 12 -20 28 -27 15 -7 41 -20 58 -28 32 -15 70 -10
59 8 -3 5 -18 10 -32 10 -15 0 -46 11 -70 25 -31 19 -43 22 -43 12z"/>
<path d="M1410 3577 c0 -8 14 -20 30 -27 19 -8 30 -20 30 -33 0 -17 -5 -19
-39 -14 -31 4 -38 2 -34 -9 3 -9 20 -14 44 -14 30 0 39 4 39 18 0 9 3 26 6 37
4 16 -2 23 -28 34 -18 8 -36 16 -40 19 -5 2 -8 -3 -8 -11z"/>
<path d="M1320 3541 c-18 -34 -12 -61 13 -61 20 0 22 4 19 40 -4 44 -15 51
-32 21z"/>
<path d="M5612 3471 c-7 -4 -47 -9 -89 -9 -42 -1 -79 -4 -81 -7 -3 -3 -8 -43
-10 -88 -5 -105 2 -114 84 -111 95 4 163 15 171 27 14 23 14 82 -1 112 -8 16
-18 42 -21 58 -5 27 -27 35 -53 18z"/>
<path d="M5754 3458 c4 -13 10 -49 13 -81 3 -32 10 -60 14 -63 5 -3 9 -13 9
-23 0 -39 155 -36 169 2 5 14 2 26 -9 37 -10 10 -23 42 -30 71 -7 30 -17 60
-23 67 -6 7 -35 12 -79 12 -68 0 -70 -1 -64 -22z"/>
<path d="M1845 3453 c-57 -18 -45 -28 21 -18 28 4 44 11 44 21 0 17 -2 17 -65
-3z"/>
<path d="M1921 3417 c-28 -59 -26 -65 9 -27 30 33 37 54 21 64 -5 4 -19 -13
-30 -37z"/>
<path d="M4920 3447 c0 -8 -9 -21 -20 -28 -10 -8 -22 -25 -24 -39 -3 -14 -10
-44 -17 -67 -18 -69 -12 -74 83 -71 l83 3 3 50 c2 27 7 54 12 60 4 5 10 30 11
55 l4 45 -68 3 c-53 2 -67 0 -67 -11z"/>
<path d="M5146 3444 c-3 -9 -6 -23 -6 -31 0 -9 -6 -21 -14 -27 -9 -7 -16 -35
-18 -76 l-3 -65 124 -3 c93 -2 126 1 133 10 4 7 8 57 8 111 l0 97 -109 0 c-90
0 -110 -3 -115 -16z"/>
<path d="M1335 3440 c-16 -4 -82 -9 -145 -10 -63 -1 -140 -6 -170 -10 -38 -6
-8 -7 95 -4 186 5 285 14 285 25 0 10 -22 10 -65 -1z"/>
<path d="M4778 3399 c-32 -55 -41 -159 -14 -159 9 0 15 18 19 58 2 31 13 74
23 95 28 59 4 65 -28 6z"/>
<path d="M6000 3440 c0 -16 33 -80 42 -80 14 0 9 23 -12 58 -20 32 -30 40 -30
22z"/>
<path d="M860 3420 c0 -5 14 -10 32 -10 36 0 35 4 -4 14 -17 4 -28 2 -28 -4z"/>
<path d="M1696 3355 c-25 -26 -46 -56 -46 -68 0 -21 0 -21 18 -1 43 49 84 106
79 111 -3 3 -26 -16 -51 -42z"/>
<path d="M1093 3380 c-83 -3 -155 -9 -160 -14 -5 -5 48 -6 124 -2 92 5 139 3
154 -5 17 -9 24 -8 36 4 8 8 11 16 6 18 -4 2 -76 2 -160 -1z"/>
<path d="M1456 3345 c4 -8 8 -15 10 -15 2 0 4 7 4 15 0 8 -4 15 -10 15 -5 0
-7 -7 -4 -15z"/>
<path d="M1306 3333 c-11 -11 -97 -32 -132 -33 -17 0 -34 -3 -38 -7 -4 -5 -22
-13 -39 -20 -29 -10 -27 -11 23 -6 30 3 64 10 75 16 11 6 75 11 142 11 109 1
146 7 131 21 -2 3 -20 7 -39 10 -33 5 -33 5 -9 -7 24 -12 24 -12 -19 -16 -33
-2 -48 1 -65 17 -13 12 -26 18 -30 14z"/>
<path d="M890 3310 c0 -5 -7 -10 -15 -10 -8 0 -15 -7 -15 -15 0 -18 1 -18 34
-5 17 6 24 14 20 25 -7 17 -24 21 -24 5z"/>
<path d="M1610 3310 c0 -5 5 -10 10 -10 6 0 10 5 10 10 0 6 -4 10 -10 10 -5 0
-10 -4 -10 -10z"/>
<path d="M675 3264 c4 -10 10 -29 12 -41 3 -12 29 -46 59 -77 30 -30 54 -60
54 -65 0 -6 10 -16 23 -22 12 -6 29 -18 37 -25 44 -41 116 -94 127 -94 6 0 18
-6 25 -13 19 -19 61 -47 70 -47 4 0 5 7 2 15 -4 8 -10 15 -15 15 -11 0 -117
75 -167 117 -91 77 -212 207 -212 228 0 8 -5 17 -12 21 -8 5 -9 2 -3 -12z"/>
<path d="M1540 3255 c-7 -8 -19 -15 -27 -15 -8 0 -40 -13 -71 -29 -107 -55
-162 -71 -212 -61 -34 6 -50 5 -67 -6 -27 -17 -26 -15 -11 -49 31 -67 186 -73
260 -10 13 11 37 28 53 39 44 27 85 74 85 97 0 10 4 19 9 19 5 0 11 7 15 15 3
9 0 15 -8 15 -7 0 -19 -7 -26 -15z"/>
<path d="M4900 3181 c-41 -5 -45 -8 -42 -31 1 -13 8 -27 14 -31 7 -5 12 -26
11 -48 -2 -31 3 -43 18 -51 10 -6 19 -20 19 -30 0 -11 6 -20 14 -20 8 0 16 -4
18 -9 5 -16 31 -16 81 -1 48 15 59 33 33 54 -8 6 -17 29 -20 51 -12 80 -18
105 -27 111 -15 9 -70 11 -119 5z"/>
<path d="M5483 3182 c-40 -3 -43 -5 -49 -39 -7 -40 0 -160 11 -171 8 -8 144
-6 193 3 27 5 32 10 32 35 0 16 7 35 15 44 18 18 21 111 3 122 -13 9 -137 12
-205 6z"/>
<path d="M5793 3178 c2 -7 0 -26 -6 -43 -5 -16 -13 -54 -17 -84 -11 -67 2 -80
76 -81 45 0 52 3 62 25 7 14 12 34 12 44 0 10 10 38 23 62 28 55 25 75 -15 83
-56 11 -140 7 -135 -6z"/>
<path d="M6773 3172 c-10 -11 -31 -36 -48 -56 -16 -20 -40 -46 -52 -58 -28
-27 -29 -66 -4 -110 82 -139 146 -548 107 -681 -9 -30 -16 -70 -16 -89 0 -41
-22 -146 -46 -213 -38 -113 -158 -355 -196 -399 -10 -11 -18 -26 -18 -33 0 -7
-4 -13 -10 -13 -5 0 -10 -6 -10 -12 0 -7 -23 -37 -50 -67 -28 -29 -50 -55 -50
-58 0 -9 -91 -93 -100 -93 -5 0 -12 -11 -16 -25 -3 -14 -9 -25 -13 -25 -4 0
-25 -16 -47 -35 -21 -19 -42 -35 -46 -35 -5 0 -8 -4 -8 -10 0 -11 -36 -50 -46
-50 -3 0 -15 -11 -26 -25 -11 -14 -24 -25 -30 -25 -6 0 -25 -16 -44 -35 -18
-19 -39 -35 -46 -35 -7 -1 -29 -14 -48 -30 -19 -17 -40 -30 -47 -30 -14 0 -59
-26 -81 -47 -7 -7 -19 -13 -25 -13 -7 0 -22 -3 -33 -6 -45 -12 -49 25 -54 510
-4 403 -7 448 -20 434 -9 -8 -34 -27 -58 -42 -23 -14 -48 -35 -54 -46 -7 -11
-16 -20 -21 -20 -8 0 -77 -52 -109 -82 -9 -10 -35 -29 -58 -43 -22 -14 -40
-29 -40 -35 0 -5 -11 -15 -23 -22 -13 -7 -54 -35 -90 -62 l-67 -50 0 -162 c0
-164 -16 -365 -30 -374 -4 -3 -12 -15 -19 -27 -14 -27 -79 -63 -136 -75 -22
-5 -81 -12 -131 -16 -73 -7 -95 -13 -112 -30 -48 -48 -34 -52 211 -53 259 0
236 -16 -73 -49 -252 -27 -337 -25 -750 20 -67 7 -136 23 -205 46 -23 8 -52
14 -65 14 -14 0 -50 9 -80 21 -30 11 -71 25 -90 29 -42 9 -101 30 -115 40 -5
4 -34 15 -62 24 -29 10 -53 21 -53 26 0 4 -15 10 -32 13 -72 12 -133 28 -142
37 -6 6 -20 10 -32 10 -12 0 -27 7 -34 15 -7 8 -20 15 -29 15 -10 0 -42 12
-72 27 -30 14 -70 29 -89 33 -19 4 -43 11 -52 15 -11 4 -18 3 -18 -4 0 -6 6
-11 13 -11 6 0 25 -14 40 -30 16 -16 35 -30 43 -30 8 0 14 -4 14 -9 0 -4 18
-20 40 -35 22 -14 58 -38 79 -52 50 -32 108 -65 191 -105 36 -18 85 -42 110
-55 25 -12 74 -32 110 -45 36 -12 70 -25 75 -29 6 -4 35 -13 65 -20 30 -7 63
-17 73 -22 25 -13 123 -38 149 -38 11 0 41 -6 67 -14 137 -43 311 -61 581 -61
261 0 439 19 584 61 26 8 58 14 71 14 12 0 48 9 81 20 32 12 91 29 129 40 39
11 89 28 112 40 23 11 52 20 65 20 13 0 32 7 42 15 16 12 64 15 258 15 l238 0
0 25 c0 19 -5 25 -23 25 -13 0 -27 4 -33 10 -5 5 -50 12 -99 16 -50 3 -96 7
-103 10 -16 5 19 41 52 53 12 5 53 31 90 58 37 26 75 53 84 58 32 19 198 161
234 200 11 11 43 45 71 75 69 73 178 214 208 270 13 25 27 47 30 50 9 7 55 92
107 195 24 50 49 97 53 105 17 28 31 65 49 125 10 33 27 87 38 120 40 118 57
249 57 435 0 109 -5 196 -13 230 -8 30 -17 80 -22 112 -4 31 -15 71 -23 90
-19 40 -42 111 -52 156 -3 17 -10 32 -15 32 -4 0 -13 14 -20 30 -17 40 -26 44
-47 22z"/>
<path d="M5111 3152 c-14 -33 -6 -78 15 -86 8 -3 14 -19 14 -36 0 -20 6 -32
18 -36 9 -3 28 -11 42 -19 17 -9 48 -11 98 -8 l73 6 -3 101 -3 101 -121 3
-121 3 -12 -29z"/>
<path d="M6620 3169 c0 -9 -14 -28 -31 -45 -17 -16 -56 -63 -87 -104 -31 -41
-63 -82 -72 -90 -8 -9 -24 -29 -35 -44 -20 -29 -93 -117 -104 -126 -3 -3 -15
-21 -25 -40 -23 -41 -50 -79 -88 -122 -16 -17 -28 -36 -28 -43 0 -6 -11 -17
-24 -24 -13 -7 -30 -24 -37 -37 -7 -13 -18 -24 -25 -24 -7 0 -18 -13 -25 -29
-8 -17 -24 -35 -36 -42 -13 -7 -23 -16 -23 -21 0 -5 -32 -39 -71 -76 -40 -37
-120 -114 -179 -172 -58 -58 -120 -112 -136 -120 -16 -8 -41 -27 -57 -42 -15
-16 -34 -28 -41 -28 -8 0 -16 -3 -18 -7 -4 -11 -75 -63 -85 -63 -4 0 -19 -12
-32 -25 -13 -14 -29 -25 -37 -25 -8 0 -14 -6 -14 -12 0 -7 -23 -29 -52 -48
-29 -19 -60 -43 -70 -52 -10 -10 -25 -18 -33 -18 -8 0 -15 -3 -15 -8 0 -4 -17
-16 -37 -27 -21 -11 -56 -32 -78 -48 -95 -66 -146 -97 -160 -97 -9 0 -18 -6
-21 -14 -3 -8 -31 -22 -62 -32 -31 -9 -64 -23 -72 -29 -16 -14 -90 -52 -103
-54 -4 0 -23 -8 -43 -16 -20 -8 -49 -15 -63 -15 -15 0 -36 -7 -47 -15 -10 -8
-35 -15 -54 -15 -20 0 -41 -5 -46 -10 -27 -27 -361 -46 -479 -27 -61 10 -204
79 -232 111 -12 13 -25 25 -31 27 -5 2 -26 34 -46 71 -35 64 -36 71 -36 168 0
61 -4 100 -10 100 -6 0 -8 -11 -4 -25 4 -18 3 -25 -6 -23 -15 3 -40 -38 -40
-66 0 -10 -11 -49 -24 -85 -35 -97 -41 -165 -22 -240 9 -35 16 -71 16 -81 0
-10 7 -20 15 -24 8 -3 15 -14 15 -24 0 -32 121 -132 160 -132 11 0 20 -4 20
-10 0 -5 16 -10 35 -10 20 0 50 -7 66 -16 34 -17 136 -15 219 4 25 6 70 16
100 22 30 7 60 16 66 21 6 5 31 13 55 18 87 19 121 29 137 44 9 7 40 20 67 27
28 7 72 25 98 41 27 16 56 29 66 29 10 0 29 8 42 19 13 10 42 24 64 31 22 7
47 19 55 26 9 7 36 22 60 33 25 11 57 31 72 44 15 13 39 32 54 43 15 10 41 31
59 47 18 15 40 27 48 27 9 0 19 5 22 10 3 6 14 10 24 10 10 0 24 7 31 15 7 9
32 25 56 35 23 11 51 31 62 45 11 14 24 25 30 25 5 0 12 7 16 15 3 8 11 15 18
15 17 0 48 36 40 46 -4 4 -2 4 4 1 5 -3 39 21 75 54 35 32 67 59 70 59 3 0 18
10 32 23 43 37 113 87 123 87 6 0 21 13 34 30 14 16 31 29 38 30 6 0 12 3 12
8 0 4 17 18 37 32 43 29 293 273 293 286 0 5 15 25 33 45 43 50 58 68 87 109
14 19 32 42 40 51 8 9 22 25 30 37 8 12 20 22 27 22 7 0 13 8 13 18 0 10 11
28 25 40 14 12 25 28 25 35 0 6 9 18 20 25 11 6 29 30 40 52 21 41 33 57 83
109 15 15 27 31 27 35 0 4 16 30 35 59 19 28 35 57 35 64 0 7 4 13 9 13 5 0
17 18 27 40 10 22 21 40 25 40 9 0 22 51 14 58 -3 3 -5 -1 -5 -9z"/>
<path d="M1020 3162 c0 -16 113 -122 130 -122 5 0 10 -7 10 -15 0 -8 5 -15 12
-15 6 0 27 -12 46 -26 31 -24 33 -25 23 -5 -7 11 -17 21 -23 21 -6 0 -27 15
-47 33 -20 17 -58 50 -84 71 -26 22 -47 46 -47 53 0 7 -4 13 -10 13 -5 0 -10
-4 -10 -8z"/>
<path d="M4762 3151 c9 -15 9 -23 -1 -35 -11 -13 -11 -16 1 -16 10 0 14 9 13
28 -3 39 -4 42 -15 42 -6 0 -5 -8 2 -19z"/>
<path d="M1445 3080 c-3 -5 -1 -10 4 -10 6 0 11 5 11 10 0 6 -2 10 -4 10 -3 0
-8 -4 -11 -10z"/>
<path d="M4787 3054 c6 -15 23 -19 23 -5 0 5 -7 11 -14 14 -10 4 -13 1 -9 -9z"/>
<path d="M3244 2975 c-8 -20 4 -35 26 -35 10 0 21 -4 24 -9 3 -4 29 -11 58
-15 49 -6 96 -17 217 -49 46 -13 81 -47 81 -79 0 -32 -10 -47 -101 -143 -10
-12 -19 -26 -19 -33 0 -6 -11 -24 -25 -39 -60 -67 -85 -99 -85 -108 0 -9 -44
-63 -90 -110 -11 -12 -20 -26 -20 -32 0 -6 -13 -25 -30 -41 -16 -17 -30 -33
-30 -37 0 -3 -11 -17 -25 -31 -14 -14 -32 -38 -40 -54 -8 -15 -29 -43 -46 -62
-32 -34 -109 -134 -109 -141 0 -2 -16 -21 -36 -42 -20 -21 -47 -57 -62 -79
-14 -23 -34 -50 -46 -61 -12 -11 -38 -43 -59 -70 -65 -87 -71 -95 -99 -129
-16 -19 -28 -39 -28 -46 0 -6 -27 -40 -60 -74 -33 -35 -60 -67 -60 -73 0 -10
-30 -49 -74 -93 -13 -14 -32 -41 -43 -60 -10 -19 -41 -58 -68 -86 -28 -29 -61
-66 -75 -84 -14 -17 -35 -43 -47 -56 -13 -14 -23 -29 -23 -34 0 -18 -86 -97
-120 -110 -19 -7 -42 -19 -50 -26 -8 -7 -44 -18 -80 -24 -36 -7 -73 -16 -82
-21 -15 -8 -170 -28 -215 -29 -7 0 -13 -11 -13 -25 0 -19 5 -25 23 -26 12 0
301 1 642 2 341 2 639 2 663 2 35 0 42 3 42 18 0 16 -8 19 -47 19 -140 1 -277
44 -338 107 -34 35 -36 41 -30 78 3 22 15 49 25 61 11 11 20 26 20 34 0 12 68
106 112 154 10 11 18 25 18 31 0 7 9 20 20 30 11 10 20 22 20 27 0 5 11 19 23
31 13 12 35 40 49 63 15 22 42 58 62 79 20 21 36 39 36 41 0 7 52 81 83 117
17 22 44 58 59 80 29 44 67 92 106 131 12 13 22 28 22 33 0 6 10 21 23 35 41
46 92 111 96 122 5 13 52 71 86 106 14 14 25 31 25 38 0 6 8 20 18 30 39 42
102 129 102 141 0 6 11 18 25 27 14 9 25 21 25 27 0 5 13 24 29 41 65 68 81
87 81 96 0 19 39 31 60 18 11 -7 20 -17 20 -21 0 -8 73 -96 160 -196 17 -19
30 -37 30 -40 0 -3 11 -19 25 -35 14 -16 25 -33 25 -37 0 -15 55 -91 98 -134
12 -12 22 -29 22 -36 0 -8 8 -22 18 -30 9 -9 32 -33 49 -55 18 -21 62 -74 98
-117 36 -43 65 -82 65 -86 0 -4 12 -21 28 -38 48 -53 92 -107 92 -115 0 -5 6
-8 14 -8 7 0 21 -11 30 -25 18 -28 63 -34 72 -10 4 8 14 15 24 15 11 0 22 5
25 10 3 6 16 10 29 10 12 0 36 13 52 30 16 16 39 30 52 30 12 0 22 5 22 10 0
6 7 10 15 10 8 0 15 1 16 3 0 1 3 64 5 140 4 127 2 139 -16 157 -11 11 -20 22
-20 25 0 5 -24 35 -46 59 -6 6 -26 34 -45 61 -19 28 -44 61 -57 75 -44 49 -52
60 -52 70 0 6 -4 10 -10 10 -5 0 -10 6 -10 13 0 7 -9 18 -20 25 -11 7 -20 17
-20 22 0 6 -11 23 -24 38 -14 15 -37 45 -52 67 -14 22 -33 44 -40 48 -8 4 -14
13 -14 19 0 9 -28 46 -74 98 -7 8 -21 29 -32 45 -10 17 -29 40 -41 52 -13 12
-23 27 -23 34 0 21 -122 132 -179 162 -31 17 -67 36 -81 43 -14 8 -33 14 -42
14 -9 0 -20 5 -23 10 -3 6 -23 10 -44 10 -21 0 -55 7 -74 15 -53 22 -665 22
-673 0z"/>
<path d="M1478 2927 c-7 -7 -20 -16 -28 -20 -8 -4 -31 -17 -50 -28 -19 -12
-55 -33 -80 -46 l-45 -24 38 5 c21 3 55 18 76 35 22 17 44 31 49 31 11 0 62
46 62 55 0 9 -8 5 -22 -8z"/>
<path d="M5070 2892 c-50 -6 -54 -11 -34 -33 10 -11 24 -17 31 -15 7 3 13 -1
13 -9 0 -8 8 -15 18 -15 9 0 30 -13 45 -30 16 -16 35 -30 43 -30 8 0 14 -4 14
-10 0 -5 5 -10 11 -10 8 0 8 4 2 13 -6 6 -13 24 -17 39 -4 18 -15 30 -31 34
-17 4 -25 13 -25 28 0 26 -32 44 -70 38z"/>
<path d="M5224 2890 c-12 -5 -9 -13 15 -40 17 -19 31 -41 31 -47 0 -7 5 -13
12 -13 6 0 19 -6 27 -14 9 -7 26 -17 37 -20 27 -8 33 11 25 79 l-6 50 -63 5
c-34 3 -70 3 -78 0z"/>
<path d="M5480 2890 c-11 -6 -16 -27 -18 -69 -2 -59 -2 -61 23 -61 26 0 95 63
95 86 0 6 7 17 15 24 13 11 13 15 3 21 -17 11 -99 11 -118 -1z"/>
<path d="M5688 2869 c-13 -17 -28 -36 -34 -43 -6 -6 -15 -22 -18 -34 -6 -18
-3 -22 13 -22 12 0 29 8 40 19 10 10 30 21 44 25 27 6 77 53 77 71 0 5 -22 11
-49 12 -44 2 -52 -1 -73 -28z"/>
<path d="M1110 2870 c20 -13 33 -13 25 0 -3 6 -14 10 -23 10 -15 0 -15 -2 -2
-10z"/>
<path d="M1200 2820 c8 -5 22 -9 30 -9 10 0 8 3 -5 9 -27 12 -43 12 -25 0z"/>
<path d="M5375 2570 l-250 -5 0 -130 c1 -341 8 -675 14 -675 4 0 21 14 39 30
18 17 36 30 39 30 3 0 20 12 38 28 18 15 61 47 95 71 34 25 67 53 74 63 6 10
16 18 23 18 6 0 42 25 80 56 37 31 78 60 91 65 12 5 22 15 22 23 0 7 7 16 15
20 13 4 15 37 15 211 l0 205 -22 -2 c-13 -1 -135 -5 -273 -8z"/>
</g>
</svg>
